<?xml version="1.0" encoding="iso-8859-1"?>
<!-- Generator: Adobe Illustrator 19.0.0, SVG Export Plug-In . SVG Version: 6.00 Build 0)  -->
<svg xmlns="http://www.w3.org/2000/svg" xmlns:xlink="http://www.w3.org/1999/xlink" version="1.1" id="Layer_1" x="0px" y="0px" viewBox="0 0 502 502" style="enable-background:new 0 0 502 502;" xml:space="preserve" width="512" height="512">
<g>
	<g>
		<path style="fill:#CCCCCC;" d="M442,492H60c-27.614,0-50-22.386-50-50V60c0-27.614,22.386-50,50-50h382c27.614,0,50,22.386,50,50    v382C492,469.614,469.614,492,442,492z"/>
		<path d="M442,502H60c-33.084,0-60-26.916-60-60V60C0,26.916,26.916,0,60,0h382c33.084,0,60,26.916,60,60v382    C502,475.084,475.084,502,442,502z M60,20c-22.056,0-40,17.944-40,40v382c0,22.056,17.944,40,40,40h382c22.056,0,40-17.944,40-40    V60c0-22.056-17.944-40-40-40H60z"/>
	</g>
	<g>
		<path style="fill:#CCCCCC;" d="M442,492H60c-27.614,0-50-22.386-50-50V60c0-27.614,22.386-50,50-50h382c27.614,0,50,22.386,50,50    v382C492,469.614,469.614,492,442,492z"/>
		<path d="M442,502H60c-33.084,0-60-26.916-60-60V60C0,26.916,26.916,0,60,0h382c33.084,0,60,26.916,60,60v382    C502,475.084,475.084,502,442,502z M60,20c-22.056,0-40,17.944-40,40v382c0,22.056,17.944,40,40,40h382c22.056,0,40-17.944,40-40    V60c0-22.056-17.944-40-40-40H60z"/>
	</g>
	<g>
		<g>
			<circle style="fill:#666666;" cx="251" cy="251" r="82"/>
			<path d="M251,343c-50.729,0-92-41.271-92-92s41.271-92,92-92s92,41.271,92,92S301.729,343,251,343z M251,179     c-39.701,0-72,32.299-72,72s32.299,72,72,72s72-32.299,72-72S290.701,179,251,179z"/>
		</g>
	</g>
	<g>
		<path d="M47,306c-5.523,0-10-4.477-10-10V111c0-5.523,4.477-10,10-10s10,4.477,10,10v185C57,301.523,52.523,306,47,306z"/>
	</g>
	<g>
		<path d="M47,82c-5.523,0-10-4.477-10-10V54c0-5.523,4.477-10,10-10s10,4.477,10,10v18C57,77.523,52.523,82,47,82z"/>
	</g>
</g>















</svg>
