<?xml version="1.0" encoding="iso-8859-1"?>
<!-- Generator: Adobe Illustrator 19.0.0, SVG Export Plug-In . SVG Version: 6.00 Build 0)  -->
<svg xmlns="http://www.w3.org/2000/svg" xmlns:xlink="http://www.w3.org/1999/xlink" version="1.1" id="Layer_1" x="0px" y="0px" viewBox="0 0 502 502" style="enable-background:new 0 0 502 502;" xml:space="preserve" width="512" height="512">
<g>
	<g>
		<path style="fill:#CCCCCC;" d="M442,492H60c-27.614,0-50-22.386-50-50V60c0-27.614,22.386-50,50-50h382c27.614,0,50,22.386,50,50    v382C492,469.614,469.614,492,442,492z"/>
		<path d="M442,502H60c-33.084,0-60-26.916-60-60V60C0,26.916,26.916,0,60,0h382c33.084,0,60,26.916,60,60v382    C502,475.084,475.084,502,442,502z M60,20c-22.056,0-40,17.944-40,40v382c0,22.056,17.944,40,40,40h382c22.056,0,40-17.944,40-40    V60c0-22.056-17.944-40-40-40H60z"/>
	</g>
	<g>
		<path style="fill:#CCCCCC;" d="M442,492H60c-27.614,0-50-22.386-50-50V60c0-27.614,22.386-50,50-50h382c27.614,0,50,22.386,50,50    v382C492,469.614,469.614,492,442,492z"/>
		<path d="M442,502H60c-33.084,0-60-26.916-60-60V60C0,26.916,26.916,0,60,0h382c33.084,0,60,26.916,60,60v382    C502,475.084,475.084,502,442,502z M60,20c-22.056,0-40,17.944-40,40v382c0,22.056,17.944,40,40,40h382c22.056,0,40-17.944,40-40    V60c0-22.056-17.944-40-40-40H60z"/>
	</g>
	<g>
		<g>
			<circle style="fill:#666666;" cx="142" cy="140" r="46"/>
			<path d="M142,196c-30.879,0-56-25.122-56-56s25.121-56,56-56s56,25.122,56,56S172.879,196,142,196z M142,104     c-19.851,0-36,16.149-36,36s16.149,36,36,36s36-16.149,36-36S161.851,104,142,104z"/>
		</g>
		<g>
			<circle style="fill:#666666;" cx="362" cy="140" r="46"/>
			<path d="M362,196c-30.879,0-56-25.122-56-56s25.121-56,56-56s56,25.122,56,56S392.879,196,362,196z M362,104     c-19.851,0-36,16.149-36,36s16.149,36,36,36s36-16.149,36-36S381.851,104,362,104z"/>
		</g>
		<g>
			<circle style="fill:#666666;" cx="141" cy="362" r="46"/>
			<path d="M141,418c-30.879,0-56-25.122-56-56s25.121-56,56-56s56,25.122,56,56S171.879,418,141,418z M141,326     c-19.851,0-36,16.149-36,36s16.149,36,36,36s36-16.149,36-36S160.851,326,141,326z"/>
		</g>
		<g>
			<circle style="fill:#666666;" cx="362" cy="362" r="46"/>
			<path d="M362,418c-30.879,0-56-25.122-56-56s25.121-56,56-56s56,25.122,56,56S392.879,418,362,418z M362,326     c-19.851,0-36,16.149-36,36s16.149,36,36,36s36-16.149,36-36S381.851,326,362,326z"/>
		</g>
	</g>
	<g>
		<path d="M47,306c-5.522,0-10-4.477-10-10V111c0-5.523,4.478-10,10-10s10,4.477,10,10v185C57,301.523,52.522,306,47,306z"/>
	</g>
	<g>
		<path d="M47,82c-5.522,0-10-4.477-10-10V54c0-5.523,4.478-10,10-10s10,4.477,10,10v18C57,77.523,52.522,82,47,82z"/>
	</g>
</g>















</svg>
