<?xml version="1.0" encoding="iso-8859-1"?>
<!-- Generator: Adobe Illustrator 19.0.0, SVG Export Plug-In . SVG Version: 6.00 Build 0)  -->
<svg xmlns="http://www.w3.org/2000/svg" xmlns:xlink="http://www.w3.org/1999/xlink" version="1.1" id="Layer_1" x="0px" y="0px" viewBox="0 0 502 502" style="enable-background:new 0 0 502 502;" xml:space="preserve" width="512" height="512">
<g>
	<g>
		<path style="fill:#CCCCCC;" d="M442,492H60c-27.614,0-50-22.386-50-50V60c0-27.614,22.386-50,50-50h382c27.614,0,50,22.386,50,50    v382C492,469.614,469.614,492,442,492z"/>
		<path d="M442,502H60c-33.084,0-60-26.916-60-60V60C0,26.916,26.916,0,60,0h382c33.084,0,60,26.916,60,60v382    C502,475.084,475.084,502,442,502z M60,20c-22.056,0-40,17.944-40,40v382c0,22.056,17.944,40,40,40h382c22.056,0,40-17.944,40-40    V60c0-22.056-17.944-40-40-40H60z"/>
	</g>
	<g>
		<g>
			<circle style="fill:#666666;" cx="164.5" cy="107" r="46"/>
			<path d="M164.5,163c-30.878,0-56-25.122-56-56s25.122-56,56-56s56,25.122,56,56S195.378,163,164.5,163z M164.5,71     c-19.851,0-36,16.149-36,36s16.149,36,36,36s36-16.149,36-36S184.351,71,164.5,71z"/>
		</g>
		<g>
			<circle style="fill:#666666;" cx="164.5" cy="251" r="46"/>
			<path d="M164.5,307c-30.878,0-56-25.122-56-56s25.122-56,56-56s56,25.122,56,56S195.378,307,164.5,307z M164.5,215     c-19.851,0-36,16.149-36,36s16.149,36,36,36s36-16.149,36-36S184.351,215,164.5,215z"/>
		</g>
		<g>
			<circle style="fill:#666666;" cx="164.5" cy="395" r="46"/>
			<path d="M164.5,451c-30.878,0-56-25.122-56-56s25.122-56,56-56s56,25.122,56,56S195.378,451,164.5,451z M164.5,359     c-19.851,0-36,16.149-36,36s16.149,36,36,36s36-16.149,36-36S184.351,359,164.5,359z"/>
		</g>
		<g>
			<circle style="fill:#666666;" cx="337.5" cy="107" r="46"/>
			<path d="M337.5,163c-30.878,0-56-25.122-56-56s25.122-56,56-56s56,25.122,56,56S368.378,163,337.5,163z M337.5,71     c-19.851,0-36,16.149-36,36s16.149,36,36,36s36-16.149,36-36S357.351,71,337.5,71z"/>
		</g>
		<g>
			<circle style="fill:#666666;" cx="337.5" cy="251" r="46"/>
			<path d="M337.5,307c-30.878,0-56-25.122-56-56s25.122-56,56-56s56,25.122,56,56S368.378,307,337.5,307z M337.5,215     c-19.851,0-36,16.149-36,36s16.149,36,36,36s36-16.149,36-36S357.351,215,337.5,215z"/>
		</g>
		<g>
			<circle style="fill:#666666;" cx="337.5" cy="395" r="46"/>
			<path d="M337.5,451c-30.878,0-56-25.122-56-56s25.122-56,56-56s56,25.122,56,56S368.378,451,337.5,451z M337.5,359     c-19.851,0-36,16.149-36,36s16.149,36,36,36s36-16.149,36-36S357.351,359,337.5,359z"/>
		</g>
	</g>
	<g>
		<path d="M47,306c-5.523,0-10-4.477-10-10V111c0-5.523,4.477-10,10-10s10,4.477,10,10v185C57,301.523,52.523,306,47,306z"/>
	</g>
	<g>
		<path d="M47,82c-5.523,0-10-4.477-10-10V54c0-5.523,4.477-10,10-10s10,4.477,10,10v18C57,77.523,52.523,82,47,82z"/>
	</g>
</g>















</svg>
